<svg width="1919" height="220" viewBox="0 0 1919 220" fill="none" xmlns="http://www.w3.org/2000/svg">
<g clip-path="url(#clip0_2241_60361)">
<g clip-path="url(#clip1_2241_60361)">
<path fill-rule="evenodd" clip-rule="evenodd" d="M1117.2 181.467L1920 112.533V-1220H0V219.6L1006.27 131.067L1117.2 181.467Z" fill="#83FFE7"/>
<path fill-rule="evenodd" clip-rule="evenodd" d="M1117.2 181.467L1006.27 131.067L913.466 -1220H1198.8L1117.2 181.467Z" fill="#17F1D8"/>
<g filter="url(#filter0_f_2241_60361)">
<path d="M-97.8159 -275.629L-142.377 -213.491L-53.255 -337.768L-97.8159 -275.629L-53.255 -337.768L58.9685 -418.127L113.131 -290.117L84.074 -41.0494L12.6495 1.2703L-83.7647 11.9632L-163.375 -106.613L-142.46 -213.412L-97.8159 -275.629Z" fill="#17F1D8"/>
<path d="M-116.014 -120.417L19.908 -85.2655L-83.5989 11.8066L-116.014 -120.417Z" fill="#15C8D1"/>
<path d="M12.8109 1.27514L-83.6034 11.9681L19.8252 -85.1869L12.8109 1.27514Z" fill="#17D7D8"/>
<path d="M19.908 -85.2654L12.8107 1.27496L84.2352 -41.0448L19.908 -85.2654Z" fill="#18E9DA"/>
</g>
<path d="M1232.71 42.0959L1296.83 -37.6493L1451.66 -38.1173L1451.75 -37.8096L1498.99 136.486L1382.24 216.511L1271.88 165.403L1232.71 42.0959Z" fill="#17F1D8"/>
<path d="M1381.23 13.9602L1316.58 10.5174L1296.83 -37.5472L1427.56 -23.082L1381.23 13.9602Z" fill="#4DFFE1"/>
<path d="M1286.19 89.4465L1316.58 10.4152L1381.23 13.8581L1389.1 105.924L1336.86 149.945L1295.17 132.884L1286.19 89.4465Z" fill="#3CF7DC"/>
<path d="M1462.88 63.6972L1469.47 135.718L1389.1 106.026L1381.23 13.9603L1462.88 63.6972Z" fill="#18E9DA"/>
<path d="M1232.71 42.0959L1251.28 44.5698L1316.58 10.4152L1296.83 -37.5471L1232.71 42.0959Z" fill="#A4FFEE"/>
<path d="M1382.24 216.511L1336.96 150.049L1295.27 132.987L1271.88 165.505L1382.24 216.511Z" fill="#17D7D8"/>
<path d="M1336.96 150.049L1389.2 106.027L1469.57 135.719L1382.24 216.511L1336.96 150.049Z" fill="#15C8D1"/>
<path d="M1316.59 10.4153L1286.19 89.4466L1251.28 44.6721L1316.59 10.4153Z" fill="#17F1D8"/>
<path d="M1381.23 13.9603L1462.88 63.6972L1427.66 -23.1829L1381.23 13.9603Z" fill="#3CF7DC"/>
<path d="M1286.19 89.4465L1295.17 132.986L1271.78 165.504L1232.71 42.0959L1251.28 44.5699L1286.19 89.4465Z" fill="#4DFFE1"/>
<path d="M1427.56 -23.1841L1462.78 63.6959L1469.37 135.717L1382.24 216.511L1498.99 136.384L1451.65 -38.0152L1427.56 -23.1841Z" fill="#17F1D8"/>
<g filter="url(#filter1_f_2241_60361)">
<path d="M836.975 -73.8208L875.486 -40.6001L873.061 36.3133L872.906 36.3569L785.517 56.8295L747.77 -2.53945L775.051 -56.4795L836.975 -73.8208Z" fill="#17F1D8"/>
<path d="M866.056 24.0878L875.486 -40.6009L873.061 36.3124L866.056 24.0878Z" fill="#17D7D8"/>
<path d="M848.401 0.434322L851.221 -31.6173L875.435 -40.6033L866.005 24.0855L848.401 0.434322Z" fill="#4DFFE1"/>
<path d="M812.536 -48.0676L851.272 -31.6145L848.452 0.43711L802.584 2.76754L781.614 -23.939L790.805 -44.3549L812.536 -48.0676Z" fill="#3CF7DC"/>
<path d="M822.293 40.1433L786.405 42.1775L802.534 2.76559L848.401 0.435165L822.293 40.1433Z" fill="#18E9DA"/>
<path d="M781.561 -23.891L802.531 2.81547L786.402 42.2274L747.77 -2.5403L781.561 -23.891Z" fill="#15C8D1"/>
<path d="M848.401 0.435172L822.293 40.1433L866.054 24.1394L848.401 0.435172Z" fill="#3CF7DC"/>
<path d="M866.057 24.0883L822.296 40.0921L786.407 42.1263L747.77 -2.53987L785.567 56.8315L873.01 36.3105L866.057 24.0883Z" fill="#17F1D8"/>
</g>
</g>
</g>
<defs>
<filter id="filter0_f_2241_60361" x="-292.667" y="-482" width="600.382" height="600.382" filterUnits="userSpaceOnUse" color-interpolation-filters="sRGB">
<feFlood flood-opacity="0" result="BackgroundImageFix"/>
<feBlend mode="normal" in="SourceGraphic" in2="BackgroundImageFix" result="shape"/>
<feGaussianBlur stdDeviation="9" result="effect1_foregroundBlur_2241_60361"/>
</filter>
<filter id="filter1_f_2241_60361" x="700.667" y="-119.333" width="221.86" height="221.86" filterUnits="userSpaceOnUse" color-interpolation-filters="sRGB">
<feFlood flood-opacity="0" result="BackgroundImageFix"/>
<feBlend mode="normal" in="SourceGraphic" in2="BackgroundImageFix" result="shape"/>
<feGaussianBlur stdDeviation="9" result="effect1_foregroundBlur_2241_60361"/>
</filter>
<clipPath id="clip0_2241_60361">
<rect width="1919" height="220" fill="white"/>
</clipPath>
<clipPath id="clip1_2241_60361">
<rect width="1920" height="1440" fill="white" transform="translate(0 -1220)"/>
</clipPath>
</defs>
</svg>
