<svg width="1920" height="262" viewBox="0 0 1920 262" fill="none" xmlns="http://www.w3.org/2000/svg">
<g clip-path="url(#clip0_2449_5326)">
<path fill-rule="evenodd" clip-rule="evenodd" d="M960 48L1760 118.8L1920 88.1333V262.133H0V102.533L960 48Z" fill="#83FFE7"/>
<path fill-rule="evenodd" clip-rule="evenodd" d="M959.999 48L1760 118.8L1811.73 262.133H836.799L959.999 48Z" fill="#17F1D8"/>
<path d="M73.3393 195.589L74.6153 268.102L72.0632 123.077L73.3393 195.589L72.0632 123.077L111.956 -1.6108L225.648 65.1264L344.561 271.097L314.175 343.74L246.866 406.466L119.151 361.315L74.5966 268.208L73.3393 195.589Z" fill="#17F1D8"/>
<path d="M147.374 323.996L270.701 273.784L246.904 406.253L147.374 323.996Z" fill="#15C8D1"/>
<path d="M112.062 -1.59216L101.871 91.0902L197.971 66.9477L112.062 -1.59216Z" fill="#3CF7DC"/>
<path d="M270.702 273.784L198.079 66.9666L101.891 90.9838L134.549 168.7L270.702 273.784Z" fill="#18E9DA"/>
<path d="M270.702 273.784L344.687 271.01L225.755 65.1453L198.079 66.9666L270.702 273.784Z" fill="#3CF7DC"/>
<path d="M74.7032 268.227L119.258 361.334L147.481 324.015L134.548 168.7L101.891 90.9838L74.7032 268.227Z" fill="#3CF7DC"/>
<path d="M198.077 66.9664L112.062 -1.59216L225.753 65.1451L198.077 66.9664Z" fill="#4DFFE1"/>
<path d="M111.956 -1.6108L101.872 91.0903L74.5966 268.208L72.0632 123.077L111.956 -1.6108Z" fill="#A4FFEE"/>
<path d="M134.548 168.7L184.035 255.646L147.268 323.977L134.548 168.7Z" fill="#18E9DA"/>
<path d="M270.701 273.784L314.3 343.652L344.687 271.01L270.701 273.784Z" fill="#18E9DA"/>
<path d="M270.701 273.784L184.141 255.665L134.655 168.719L270.701 273.784Z" fill="#4DFFE1"/>
<path d="M270.701 273.784L184.141 255.665L147.374 323.996L270.701 273.784Z" fill="#17F1D8"/>
</g>
<defs>
<clipPath id="clip0_2449_5326">
<rect width="1920" height="262" fill="white"/>
</clipPath>
</defs>
</svg>
