<svg width="3200" height="262" viewBox="0 0 3200 262" fill="none" xmlns="http://www.w3.org/2000/svg">
<g clip-path="url(#clip0_2504_5330)">
<path fill-rule="evenodd" clip-rule="evenodd" d="M1563.85 86L2363.85 156.8L3200.17 126.133V300.133L0 300.133V148.533L1563.85 86Z" fill="#83FFE7"/>
<path fill-rule="evenodd" clip-rule="evenodd" d="M1563.73 86L2363.73 156.8L2415.47 300.133H1440.53L1563.73 86Z" fill="#17F1D8"/>
<g clip-path="url(#clip1_2504_5330)">
<path d="M327.344 71.6221L192.619 1.12763L153.389 147.161L164.559 314.451L221.278 419.348C221.436 419.555 371.055 463.826 371.055 463.826L445.303 387.988L476.329 302.453L327.343 71.6299L327.344 71.6221Z" fill="#18E9DA"/>
<path d="M476.329 302.454L327.344 71.6227L295.652 75.3321L391.08 309.851L476.329 302.454Z" fill="#3CF7DC"/>
<path d="M186.2 108.51L295.652 75.3318L391.08 309.851L228.358 196.322L186.2 108.51Z" fill="#18E9DA"/>
<path d="M164.558 314.451L221.277 419.348L251.566 374.497L228.357 196.321L186.2 108.51L164.558 314.451Z" fill="#3CF7DC"/>
<path d="M192.619 1.12763L153.389 147.161L164.559 314.451L186.2 108.51L192.619 1.12763Z" fill="#A4FFEE"/>
<path d="M295.652 75.3314L186.2 108.51L192.619 1.12756L295.652 75.3314Z" fill="#3CF7DC"/>
<path d="M327.344 71.622L295.652 75.3314L192.619 1.12756L327.344 71.622Z" fill="#4DFFE1"/>
<path d="M228.358 196.322L391.08 309.85L290.245 293.789L228.358 196.322Z" fill="#4DFFE1"/>
<path d="M251.567 374.497L228.358 196.322L290.245 293.789L251.567 374.497Z" fill="#18E9DA"/>
</g>
</g>
<defs>
<clipPath id="clip0_2504_5330">
<rect width="3200" height="262" fill="white"/>
</clipPath>
<clipPath id="clip1_2504_5330">
<rect width="450" height="450" fill="white" transform="translate(130.04 -22.7562) rotate(10)"/>
</clipPath>
</defs>
</svg>
