<svg width="1200" height="1119" viewBox="0 0 1200 1119" fill="none" xmlns="http://www.w3.org/2000/svg">
<path d="M347.111 702.627L116.468 705.98L22.4902 821.06L83.0651 996.562L248.33 1067.69L399.215 949.254L347.111 702.627Z" fill="#3CF7DC"/>
<path d="M347.111 702.627L399.215 949.254L248.33 1067.69L376.793 950.528L365.735 847.757L311.629 724.159L347.111 702.627Z" fill="#17D7D8"/>
<path d="M243.22 778.066L365.735 847.757L311.629 724.16L243.22 778.066Z" fill="#3CF7DC"/>
<path d="M376.793 950.529L256.648 909.613L243.22 778.066L365.735 847.757L376.793 950.529Z" fill="#18E9DA"/>
<path d="M179.767 973.549L248.33 1067.69L376.793 950.528L256.648 909.613L179.767 973.549Z" fill="#15C8D1"/>
<path d="M117.112 949.731L179.767 973.549L248.33 1067.69L83.0649 996.562L117.112 949.731Z" fill="#17D7D8"/>
<path d="M22.4902 821.061L50.2991 824.261L102.31 886.838L117.113 949.731L83.0651 996.562L22.4902 821.061Z" fill="#4DFFE1"/>
<path d="M116.468 705.981L146.84 774.237L50.2991 824.261L22.4902 821.061L116.468 705.981Z" fill="#A4FFEE"/>
<path d="M146.841 774.237L243.22 778.066L311.63 724.16L116.469 705.981L146.841 774.237Z" fill="#4DFFE1"/>
<path d="M50.2993 824.26L146.84 774.236L102.311 886.838L51.3352 826.033" fill="#17F1D8"/>
<path d="M146.84 774.236L243.22 778.065L256.648 909.613L179.767 973.549L117.113 949.73L102.311 886.838L146.84 774.236Z" fill="#3CF7DC"/>
<path d="M311.63 724.159L347.112 702.627L116.469 705.98L311.63 724.159Z" fill="#15C8D1"/>
<g clip-path="url(#clip0_2701_73127)" filter="url(#filter0_f_2701_73127)">
<path d="M486.972 155.067L543.106 263.286L385.881 381.624L380.172 205.903L486.972 155.067Z" fill="#18E9DA"/>
<path d="M486.972 155.067L543.106 263.285L491.579 270.37L486.972 155.067Z" fill="#17F1D8"/>
<path d="M385.881 381.624L491.579 270.37L543.106 263.285L385.881 381.624Z" fill="#15C8D1"/>
<path d="M491.579 270.37L414.758 230.072L486.972 155.067L491.579 270.37Z" fill="#18E9DA"/>
<path d="M385.881 381.623L380.172 205.903L414.758 230.071L385.881 381.623Z" fill="#18E9DA"/>
<path d="M414.758 230.072L457.972 305.755L385.881 381.624L414.758 230.072Z" fill="#17D7D8"/>
<path d="M486.972 155.067L423.672 185.112L451.847 191.55L486.972 155.067Z" fill="#A4FFEE"/>
<path d="M380.172 205.903L414.758 230.072L451.847 191.551L423.672 185.112L380.172 205.903Z" fill="#4DFFE1"/>
<path d="M491.579 270.37L461.362 274.039L457.972 305.755L491.579 270.37Z" fill="#17F1D8"/>
<path d="M414.758 230.072L491.579 270.37L461.363 274.04L414.758 230.072Z" fill="#4DFFE1"/>
<path d="M457.972 305.755L461.363 274.04L414.758 230.072L457.972 305.755Z" fill="#18E9DA"/>
</g>
<g filter="url(#filter1_f_2701_73127)">
<path d="M916.671 906.692L844.595 907.74L815.227 943.702L834.157 998.547L885.802 1020.77L932.953 983.763L916.671 906.692Z" fill="#3CF7DC"/>
<path d="M916.671 906.692L932.954 983.763L885.802 1020.77L925.947 984.161L922.491 952.045L905.583 913.421L916.671 906.692Z" fill="#17D7D8"/>
<path d="M884.205 930.267L922.491 952.045L905.583 913.421L884.205 930.267Z" fill="#3CF7DC"/>
<path d="M925.947 984.161L888.402 971.375L884.205 930.267L922.491 952.045L925.947 984.161Z" fill="#18E9DA"/>
<path d="M864.376 991.355L885.802 1020.77L925.946 984.161L888.401 971.375L864.376 991.355Z" fill="#15C8D1"/>
<path d="M844.797 983.912L864.376 991.355L885.802 1020.77L834.157 998.547L844.797 983.912Z" fill="#17D7D8"/>
<path d="M815.227 943.703L823.917 944.703L840.171 964.258L844.797 983.912L834.157 998.547L815.227 943.703Z" fill="#4DFFE1"/>
<path d="M844.595 907.74L854.086 929.07L823.917 944.703L815.227 943.703L844.595 907.74Z" fill="#A4FFEE"/>
<path d="M854.086 929.07L884.205 930.267L905.583 913.421L844.595 907.74L854.086 929.07Z" fill="#4DFFE1"/>
<path d="M823.917 944.702L854.086 929.07L840.171 964.258L824.241 945.256" fill="#17F1D8"/>
<path d="M854.086 929.07L884.205 930.266L888.401 971.375L864.376 991.355L844.797 983.912L840.171 964.258L854.086 929.07Z" fill="#3CF7DC"/>
<path d="M905.583 913.421L916.671 906.692L844.595 907.74L905.583 913.421Z" fill="#15C8D1"/>
</g>
<g filter="url(#filter2_f_2701_73127)">
<path d="M163.645 329.988L97.3866 330.952L70.3892 364.011L87.7908 414.428L135.267 434.861L178.612 400.838L163.645 329.988Z" fill="#3CF7DC"/>
<path d="M163.644 329.988L178.612 400.838L135.267 434.861L172.171 401.204L168.995 371.68L153.451 336.174L163.644 329.988Z" fill="#17D7D8"/>
<path d="M133.799 351.66L168.994 371.681L153.451 336.174L133.799 351.66Z" fill="#3CF7DC"/>
<path d="M172.171 401.204L137.657 389.45L133.799 351.66L168.994 371.681L172.171 401.204Z" fill="#18E9DA"/>
<path d="M115.571 407.817L135.267 434.861L172.171 401.204L137.657 389.45L115.571 407.817Z" fill="#15C8D1"/>
<path d="M97.5715 400.975L115.57 407.818L135.267 434.861L87.7905 414.429L97.5715 400.975Z" fill="#17D7D8"/>
<path d="M70.3892 364.012L78.3779 364.931L93.3194 382.908L97.5717 400.975L87.7908 414.429L70.3892 364.012Z" fill="#4DFFE1"/>
<path d="M97.3866 330.952L106.112 350.56L78.3779 364.931L70.3892 364.011L97.3866 330.952Z" fill="#A4FFEE"/>
<path d="M106.112 350.56L133.799 351.66L153.451 336.174L97.3867 330.952L106.112 350.56Z" fill="#4DFFE1"/>
<path d="M78.3779 364.93L106.112 350.56L93.3194 382.907L78.6755 365.44" fill="#17F1D8"/>
<path d="M106.112 350.56L133.799 351.66L137.657 389.45L115.571 407.817L97.5716 400.975L93.3193 382.907L106.112 350.56Z" fill="#3CF7DC"/>
<path d="M153.451 336.174L163.645 329.988L97.3867 330.952L153.451 336.174Z" fill="#15C8D1"/>
</g>
<g filter="url(#filter3_f_2701_73127)">
<path d="M761.792 540.527L646.471 542.204L599.482 599.744L629.769 687.494L712.402 723.057L787.844 663.841L761.792 540.527Z" fill="#3CF7DC"/>
<path d="M761.793 540.527L787.844 663.841L712.402 723.057L776.633 664.478L771.104 613.092L744.051 551.293L761.793 540.527Z" fill="#17D7D8"/>
<path d="M709.846 578.247L771.104 613.092L744.051 551.294L709.846 578.247Z" fill="#3CF7DC"/>
<path d="M776.633 664.478L716.561 644.02L709.846 578.247L771.104 613.092L776.633 664.478Z" fill="#18E9DA"/>
<path d="M678.12 675.988L712.402 723.057L776.633 664.478L716.561 644.02L678.12 675.988Z" fill="#15C8D1"/>
<path d="M646.793 664.079L678.12 675.988L712.401 723.058L629.769 687.495L646.793 664.079Z" fill="#17D7D8"/>
<path d="M599.482 599.744L613.386 601.344L639.392 632.633L646.793 664.079L629.769 687.495L599.482 599.744Z" fill="#4DFFE1"/>
<path d="M646.471 542.204L661.657 576.332L613.386 601.344L599.482 599.744L646.471 542.204Z" fill="#A4FFEE"/>
<path d="M661.657 576.332L709.846 578.247L744.051 551.293L646.471 542.204L661.657 576.332Z" fill="#4DFFE1"/>
<path d="M613.386 601.344L661.657 576.332L639.392 632.632L613.904 602.23" fill="#17F1D8"/>
<path d="M661.657 576.332L709.847 578.246L716.561 644.02L678.12 675.988L646.793 664.079L639.392 632.632L661.657 576.332Z" fill="#3CF7DC"/>
<path d="M744.051 551.293L761.792 540.527L646.471 542.204L744.051 551.293Z" fill="#15C8D1"/>
</g>
<g clip-path="url(#clip1_2701_73127)">
<path d="M1063.47 159.544L1033.62 47.4828L931.326 100.736L843.073 193.273L813.369 279.236C813.335 279.431 865.603 386.341 865.603 386.341L946.507 388.962L1010.57 362.294L1063.47 159.547L1063.47 159.544Z" fill="#18E9DA"/>
<path d="M865.603 386.341C865.603 386.341 813.334 279.431 813.369 279.236C813.403 279.041 854.187 273.134 854.187 273.134L865.598 386.345L865.603 386.341Z" fill="#18E9DA"/>
<path d="M946.512 388.959L962.459 318.2L865.603 386.342L946.512 388.959Z" fill="#17D7D8"/>
<path d="M1010.57 362.294L962.459 318.2L946.512 388.959L1010.57 362.294Z" fill="#18E9DA"/>
<path d="M854.192 273.131L962.459 318.2L865.604 386.341L854.192 273.131Z" fill="#15C8D1"/>
<path d="M1010.57 362.294L1063.47 159.544L1045.05 143.647L962.459 318.2L1010.57 362.294Z" fill="#3CF7DC"/>
<path d="M969.965 99.2455L1045.05 143.647L962.458 318.2L942.354 168.216L969.965 99.2455Z" fill="#18E9DA"/>
<path d="M843.073 193.273L813.369 279.236L854.192 273.131L942.355 168.215L969.965 99.2452L843.073 193.273Z" fill="#3CF7DC"/>
<path d="M1033.62 47.4828L931.326 100.736L843.073 193.273L969.965 99.2453L1033.62 47.4828Z" fill="#A4FFEE"/>
<path d="M1045.05 143.647L969.966 99.2453L1033.62 47.4828L1045.05 143.647Z" fill="#3CF7DC"/>
<path d="M1063.47 159.544L1045.05 143.647L1033.62 47.4828L1063.47 159.544Z" fill="#4DFFE1"/>
<path d="M962.459 318.2L919.492 253.252L854.192 273.131L962.459 318.2Z" fill="#17F1D8"/>
<path d="M942.355 168.215L962.46 318.2L919.492 253.252L942.355 168.215Z" fill="#4DFFE1"/>
<path d="M854.193 273.131L942.355 168.215L919.492 253.252L854.193 273.131Z" fill="#18E9DA"/>
</g>
<defs>
<filter id="filter0_f_2701_73127" x="334.27" y="141.309" width="249.757" height="249.757" filterUnits="userSpaceOnUse" color-interpolation-filters="sRGB">
<feFlood flood-opacity="0" result="BackgroundImageFix"/>
<feBlend mode="normal" in="SourceGraphic" in2="BackgroundImageFix" result="shape"/>
<feGaussianBlur stdDeviation="1.5" result="effect1_foregroundBlur_2701_73127"/>
</filter>
<filter id="filter1_f_2701_73127" x="755.464" y="845.107" width="237.252" height="237.252" filterUnits="userSpaceOnUse" color-interpolation-filters="sRGB">
<feFlood flood-opacity="0" result="BackgroundImageFix"/>
<feBlend mode="normal" in="SourceGraphic" in2="BackgroundImageFix" result="shape"/>
<feGaussianBlur stdDeviation="26.3672" result="effect1_foregroundBlur_2701_73127"/>
</filter>
<filter id="filter2_f_2701_73127" x="11.1938" y="269.118" width="226.614" height="226.614" filterUnits="userSpaceOnUse" color-interpolation-filters="sRGB">
<feFlood flood-opacity="0" result="BackgroundImageFix"/>
<feBlend mode="normal" in="SourceGraphic" in2="BackgroundImageFix" result="shape"/>
<feGaussianBlur stdDeviation="26.3672" result="effect1_foregroundBlur_2701_73127"/>
</filter>
<filter id="filter3_f_2701_73127" x="503.861" y="441.991" width="379.603" height="379.603" filterUnits="userSpaceOnUse" color-interpolation-filters="sRGB">
<feFlood flood-opacity="0" result="BackgroundImageFix"/>
<feBlend mode="normal" in="SourceGraphic" in2="BackgroundImageFix" result="shape"/>
<feGaussianBlur stdDeviation="42.1875" result="effect1_foregroundBlur_2701_73127"/>
</filter>
<clipPath id="clip0_2701_73127">
<rect width="223.614" height="223.614" fill="white" transform="translate(337.27 165.454) rotate(-5.42606)"/>
</clipPath>
<clipPath id="clip1_2701_73127">
<rect width="343.209" height="343.209" fill="white" transform="translate(1014.78) rotate(57.4625)"/>
</clipPath>
</defs>
</svg>
