<?xml version="1.0" encoding="UTF-8"?><svg id="Final" xmlns="http://www.w3.org/2000/svg" xmlns:xlink="http://www.w3.org/1999/xlink" viewBox="0 0 1920 238"><defs><style>.cls-1{fill:none;}.cls-2{fill:#dca7f2;}.cls-3{fill:#da9ef3;}.cls-4{fill:#d390f2;}.cls-5{filter:url(#AI_GaussianBlur_4);}.cls-6{filter:url(#AI_GaussianBlur_7);}.cls-7{fill:#e0aef5;}.cls-8{fill:#e1b5f7;}.cls-9{fill:#eabffd;}.cls-10{fill:#c977e7;}.cls-11{filter:url(#AI_GaussianBlur_7-2);}.cls-12{clip-path:url(#clippath);}.cls-13{fill:#ebccff;}</style><clipPath id="clippath"><rect class="cls-1" x="0" width="1921.4" height="238"/></clipPath><filter id="AI_GaussianBlur_7"><feGaussianBlur stdDeviation="7"/></filter><filter id="AI_GaussianBlur_7-2"><feGaussianBlur stdDeviation="7"/></filter><filter id="AI_GaussianBlur_4"><feGaussianBlur stdDeviation="4"/></filter></defs><polygon class="cls-9" points="1120.45 0 995.98 0 0 0 0 238 1008.98 148.29 1109.12 201.3 1920 155.19 1920 0 1120.45 0"/><polygon class="cls-9" points="0 0 0 238 1008.98 148.29 995.98 0 0 0"/><polygon class="cls-2" points="1120.45 0 1109.12 201.3 1008.98 148.29 995.98 0 1120.45 0"/><polygon class="cls-9" points="1920 0 1120.45 0 1109.12 201.3 1920 155.19 1920 0"/><g class="cls-12"><polygon class="cls-3" points="1404.66 96.06 1533.69 94.73 1556.19 92.75 1571.51 111.08 1585.22 225.84 1560.43 237.97 1475.3 237.88 1436.09 218.3 1421.85 194.97 1410.59 141.5 1404.66 96.06"/><polygon class="cls-7" points="1598.66 69.04 1568.65 91.65 1585.22 225.84 1614.91 202.72 1598.66 69.04"/><polygon class="cls-2" points="1536.47 94.69 1500.93 126.93 1503.66 164.61 1520.75 218.5 1583.49 207.76 1571.51 111.08 1556.19 92.83 1536.47 94.69"/><polygon class="cls-13" points="1598.66 69.04 1526.9 61.9 1536.47 94.69 1568.65 91.65 1598.66 69.04"/><polygon class="cls-7" points="1420.93 96.06 1404.66 96.06 1435.21 64.58 1472.02 63.51 1441.55 96.06 1420.93 96.06"/><polygon class="cls-8" points="1526.9 61.9 1472.02 63.51 1441.55 96.06 1536.47 94.69 1526.9 61.9"/><polygon class="cls-10" points="1480.39 120.78 1464.45 131.65 1464.46 152.59 1476.5 166.92 1470 220.47 1520.75 218.5 1503.66 164.61 1507.23 149.26 1500.93 126.93 1480.39 120.78"/><polygon class="cls-8" points="1574.08 71.4 1553.83 84.11 1539.32 19.56 1560.91 7.97 1574.08 71.4"/><polygon class="cls-7" points="1538.1 80.6 1553.83 84.11 1539.32 19.56 1529.81 24.81 1538.1 80.6"/><polygon class="cls-13" points="1560.91 7.97 1523.86 -18.04 1504.41 -8.09 1539.32 19.56 1560.91 7.97"/><polygon class="cls-3" points="1529.81 24.81 1498.12 7.33 1453.42 12.44 1441.58 -2.88 1504.41 -8.09 1539.32 19.56 1529.81 24.81"/><polygon class="cls-10" points="1464.98 11.18 1452.28 30.27 1460.85 75.4 1443.6 83.83 1439.72 36.23 1453.42 12.44 1464.98 11.18"/><polygon class="cls-4" points="1441.58 -2.88 1420.93 32.14 1428.81 80.77 1443.6 83.83 1439.72 36.23 1453.42 12.44 1441.58 -2.88"/><polygon class="cls-4" points="1436.09 218.3 1421.85 194.97 1410.59 141.5 1404.66 96.06 1441.55 96.06 1464.45 131.65 1476.5 166.92 1470 220.47 1475.3 238 1436.09 218.3"/><polygon class="cls-2" points="1471.45 126.87 1470.79 138.62 1473.26 150.89 1483.66 165.74 1480.34 212.78 1470 220.47 1476.5 166.92 1464.46 152.59 1464.45 131.65 1471.45 126.87"/><polygon class="cls-4" points="1520.75 218.5 1470 220.47 1480.34 212.78 1518.18 210.4 1520.75 218.5"/><polygon class="cls-8" points="1573.47 88.02 1566.54 90.06 1556.19 92.83 1571.51 111.16 1573.47 88.02"/><polygon class="cls-4" points="1436.09 218.3 1474.51 220.47 1525.26 218.5 1585.22 225.84 1560.43 237.97 1475.3 238 1436.09 218.3"/><polygon class="cls-3" points="1475.3 237.88 1560.43 237.97 1585.22 225.84 1580.52 187.62 1520.75 218.5 1470 220.47 1475.3 237.88"/><polygon class="cls-2" points="1580.52 187.62 1597.72 184.86 1614.91 202.72 1585.22 225.84 1580.52 187.62"/><polygon class="cls-10" points="1470 220.47 1421.85 194.97 1436.09 218.3 1475.3 237.88 1470 220.47"/><polygon class="cls-7" points="534.51 -117.66 490.26 68.1 542.12 55.6 534.51 -117.66"/><polygon class="cls-8" points="569.73 -126.88 534.51 -117.66 542.12 55.6 587.42 -119.05 569.73 -126.88"/><polygon class="cls-2" points="534.51 -117.66 490.26 68.1 431.71 14.31 423.64 -5.51 433.82 -57.57 454.14 -71.57 449.38 -105.28 467.56 -142.84 534.51 -117.66"/><polygon class="cls-4" points="319.36 -12.45 331.96 7.36 490.26 68.1 431.71 14.31 388.34 -1.54 319.36 -12.45"/><polygon class="cls-10" points="432.86 -120.98 451.59 -107.77 457.3 -72.18 438.38 -60.14 431.71 14.31 384.4 -2.15 406.98 -69.37 400.09 -97.54 410.95 -118.8 432.86 -120.98"/><polygon class="cls-2" points="402.43 -6.3 432.63 4.01 431.71 14.31 384.4 -2.15 402.43 -6.3"/><g class="cls-6"><polygon class="cls-13" points="798.44 -24.99 779.12 -16.65 772.26 87.19 798.42 76.37 798.44 -24.99"/><polygon class="cls-3" points="816.27 -26.36 798.44 -24.99 798.42 76.37 817.26 84.14 816.27 -26.36"/><polygon class="cls-3" points="902.93 -15.16 893.45 -22.07 816.27 -26.36 817.26 84.14 898.14 90.68 912.35 79.29 902.93 -15.16"/><polygon class="cls-10" points="772.26 87.19 801.51 100.65 898.14 90.68 912.35 79.29 817.26 84.14 798.42 76.37 772.26 87.19"/><polygon class="cls-4" points="912.35 79.29 873.63 66.91 845.15 67.55 817.26 84.14 912.35 79.29"/><polygon class="cls-7" points="860.05 -3.19 818.74 -26.23 812.29 -26.06 798.44 -24.99 798.42 76.37 817.26 84.14 845.15 67.55 856.49 16.45 860.05 -3.19"/><polygon class="cls-10" points="872.19 13.17 868.31 1.67 860.05 -3.19 849 -2.21 840.97 4.99 843.1 18.92 850.39 24.62 845.15 67.55 873.63 66.91 864.32 24.62 872.19 13.17"/><polygon class="cls-4" points="860.05 -3.19 849 -2.21 846.76 -.2 858.94 -.17 864.61 4.12 867.24 14.19 860.34 24.1 868.41 67.43 873.63 66.91 864.32 24.62 872.19 13.17 868.31 1.67 860.05 -3.19"/><polygon class="cls-2" points="902.93 -15.16 868.31 1.67 860.05 -3.19 818.74 -26.23 893.45 -22.07 902.93 -15.16"/><polygon class="cls-2" points="832.78 -18.4 811.47 9.45 822.26 43.7 845.15 67.55 850.39 24.62 843.1 18.92 840.97 4.99 849 -2.21 860.05 -3.19 832.78 -18.4"/><polygon class="cls-2" points="822.26 43.7 798.42 76.37 817.26 84.14 845.15 67.55 822.26 43.7"/><polygon class="cls-4" points="798.42 76.37 817.26 84.14 801.51 100.65 772.26 87.19 798.42 76.37"/></g><g class="cls-11"><polygon class="cls-3" points="31.11 30.85 -24.7 57.6 -43.58 61.26 -52.55 32.3 -9.84 33.59 18.48 21.42 31.11 30.85"/><polygon class="cls-3" points="17.91 -66.58 -49.92 -34.38 -24.28 -22.4 -17.98 -9.92 13.54 14.84 31.11 30.85 51.65 10.38 44.09 -19.51 17.91 -66.58"/><polygon class="cls-10" points="-14.82 -32.85 -2.7 -30.99 3.04 -18.99 .07 -7.48 18.48 21.42 -9.84 33.59 -13.55 -2.59 -21.09 -9.78 -24.28 -22.4 -14.82 -32.85"/><polygon class="cls-4" points="51.65 10.38 44.09 -19.51 21.39 -60.32 3.04 -18.99 .07 -7.48 18.48 21.42 31.11 30.85 51.65 10.38"/><polygon class="cls-2" points="-8.03 -31.81 -4.42 -25.26 -2.47 -17.55 -4.36 -6.19 10.45 19.84 18.48 21.42 .07 -7.48 3.04 -18.99 -2.7 -30.99 -8.03 -31.81"/><polygon class="cls-4" points="-9.84 33.59 18.48 21.42 10.45 19.84 -10.15 28.66 -9.84 33.59"/></g><g class="cls-5"><polygon class="cls-3" points="1855.72 17.38 1860.67 -48.78 1867.5 -50.51 1884.85 -44.76 1899.48 -4.5 1894.96 5.67 1882.8 21.66 1855.72 17.38"/><polygon class="cls-2" points="1940.21 -23.93 1922.83 49.01 1899.84 27.89 1896.67 20.11 1900.67 -.34 1908.64 -5.84 1906.77 -19.07 1913.92 -33.82 1940.21 -23.93"/><polygon class="cls-4" points="1855.72 17.38 1860.67 25.16 1922.83 49.01 1899.84 27.89 1882.8 21.66 1855.72 17.38"/><polygon class="cls-10" points="1900.29 -25.24 1907.64 -20.05 1909.89 -6.07 1902.46 -1.35 1899.84 27.89 1881.26 21.43 1890.13 -4.97 1887.42 -16.04 1891.69 -24.38 1900.29 -25.24"/><polygon class="cls-4" points="1893.35 -4.77 1888.34 19.8 1881.26 21.43 1890.13 -4.97 1886.89 -15 1891.69 -24.38 1895.48 -24.76 1890.55 -14.9 1893.35 -4.77"/><polygon class="cls-2" points="1888.34 19.8 1900.2 23.84 1899.84 27.89 1881.26 21.43 1888.34 19.8"/></g></g></svg>