<?xml version="1.0" encoding="UTF-8"?><svg id="Final" xmlns="http://www.w3.org/2000/svg" xmlns:xlink="http://www.w3.org/1999/xlink" viewBox="0 0 1920 192"><defs><style>.cls-1{fill:none;}.cls-2{fill:#dca7f2;}.cls-3{fill:#da9ef3;}.cls-4{fill:#d390f2;}.cls-5{fill:#e0aef5;}.cls-6{fill:#e1b5f7;}.cls-7{fill:#eabffd;}.cls-8{fill:#c977e7;}.cls-9{clip-path:url(#clippath);}.cls-10{fill:#ebccff;}</style><clipPath id="clippath"><rect class="cls-1" width="1920" height="192"/></clipPath></defs><polygon class="cls-7" points="1827.55 117.25 995.98 42.5 0 99.03 0 192 912.35 192 1855.72 192 1920 192 1920 98.26 1827.55 117.25"/><polygon class="cls-7" points="0 192 912.35 192 995.98 42.5 0 99.03 0 192"/><polygon class="cls-2" points="1855.72 192 912.35 192 995.98 42.5 1827.55 117.25 1855.72 192"/><polygon class="cls-7" points="1827.55 117.25 1920 98.26 1920 192 1855.72 192 1827.55 117.25"/><g class="cls-9"><polygon class="cls-10" points="225.4 61.58 248.79 71.68 257.09 197.38 225.42 184.28 225.4 61.58"/><polygon class="cls-3" points="203.81 59.92 225.4 61.58 225.42 184.28 202.62 193.68 203.81 59.92"/><polygon class="cls-3" points="98.91 73.48 110.39 65.12 203.81 59.92 202.62 193.68 104.71 201.6 87.51 187.81 98.91 73.48"/><polygon class="cls-8" points="257.09 197.38 221.68 213.68 104.71 201.6 87.51 187.81 202.62 193.68 225.42 184.28 257.09 197.38"/><polygon class="cls-3" points="119.63 68.81 126.51 25.41 140.35 26.25 136.13 68.99 119.63 68.81"/><polygon class="cls-8" points="153.13 30.18 140.35 26.25 136.13 68.99 152.06 69.19 153.13 30.18"/><polygon class="cls-8" points="140.35 26.25 166.5 12.78 175.05 19.1 153.13 30.18 140.35 26.25"/><polygon class="cls-8" points="199.42 20.33 175.05 19.1 166.5 12.78 190.15 13.23 199.42 20.33"/><polygon class="cls-2" points="126.51 25.41 147.61 4.68 166.5 12.78 140.35 26.25 126.51 25.41"/><polygon class="cls-10" points="215.35 63.92 213.23 26.08 219.1 16.05 226.41 27.75 229.33 65.74 215.35 63.92"/><polygon class="cls-6" points="199.42 20.33 213.23 26.08 215.35 63.92 209.9 63.21 200.57 60.07 199.42 20.33"/><polygon class="cls-5" points="147.51 4.67 168.02 0 187.22 .25 190.19 13.24 166.47 12.77 147.51 4.67"/><polygon class="cls-6" points="219.1 16.05 209.32 7.23 187.19 .24 190.15 13.23 199.42 20.33 213.23 26.08 219.1 16.05"/><polygon class="cls-4" points="87.51 187.81 134.38 172.83 168.85 173.61 202.62 193.68 87.51 187.81"/><polygon class="cls-5" points="150.82 87.97 200.82 60.08 208.64 60.29 225.4 61.58 225.42 184.28 202.62 193.68 168.85 173.61 155.13 111.75 150.82 87.97"/><polygon class="cls-8" points="136.12 107.78 140.82 93.86 150.82 87.97 164.19 89.15 173.92 97.87 171.33 114.74 162.51 121.64 168.85 173.61 134.38 172.83 145.65 121.64 136.12 107.78"/><polygon class="cls-4" points="150.82 87.97 164.19 89.15 166.91 91.59 152.17 91.62 145.29 96.81 142.11 109.01 150.47 121.01 140.7 173.46 134.38 172.83 145.65 121.64 136.12 107.78 140.82 93.86 150.82 87.97"/><polygon class="cls-2" points="98.91 73.48 140.82 93.86 150.82 87.97 200.82 60.08 110.39 65.12 98.91 73.48"/><polygon class="cls-2" points="183.83 69.56 209.62 103.28 196.56 144.73 168.85 173.61 162.51 121.64 171.33 114.74 173.92 97.87 164.19 89.15 150.82 87.97 183.83 69.56"/><polygon class="cls-2" points="196.56 144.73 225.42 184.28 202.62 193.68 168.85 173.61 196.56 144.73"/><polygon class="cls-4" points="225.42 184.28 202.62 193.68 221.68 213.68 257.09 197.38 225.42 184.28"/></g></svg>